<?xml version="1.0" encoding="utf-8"?>
<!-- Generator: Adobe Illustrator 15.0.2, SVG Export Plug-In . SVG Version: 6.00 Build 0)  -->
<!DOCTYPE svg PUBLIC "-//W3C//DTD SVG 1.1//EN" "http://www.w3.org/Graphics/SVG/1.1/DTD/svg11.dtd">
<svg version="1.1" id="Layer_1" xmlns="http://www.w3.org/2000/svg" xmlns:xlink="http://www.w3.org/1999/xlink" x="0px" y="0px"
	 width="407px" height="604px" viewBox="0 0 407 604" enable-background="new 0 0 407 604" xml:space="preserve">
<title>models_diagram</title>
<polygon fill="#FFFFFF" stroke="#FFFFFF" points="0,605 0,0 408,0 408,605 "/>
<g id="node1">
	<title>Appointment</title>
	<line fill="none" stroke="#000000" x1="31" y1="599" x2="181" y2="599"/>
	<path fill="none" stroke="#000000" d="M181,599c6,0,12-6,12-12"/>
	<line fill="none" stroke="#000000" x1="193" y1="587" x2="193" y2="515"/>
	<path fill="none" stroke="#000000" d="M193,515c0-6-6-12-12-12"/>
	<line fill="none" stroke="#000000" x1="181" y1="503" x2="31" y2="503"/>
	<path fill="none" stroke="#000000" d="M31,503c-6,0-12,6-12,12"/>
	<line fill="none" stroke="#000000" x1="19" y1="515" x2="19" y2="587"/>
	<path fill="none" stroke="#000000" d="M19,587c0,6,6,12,12,12"/>
	<text transform="matrix(1 0 0 1 69.0586 519.5996)" font-family="'Times-Roman'" font-size="14">Appointment</text>
	<line fill="none" stroke="#000000" x1="19" y1="527" x2="193" y2="527"/>
	<text transform="matrix(1 0 0 1 27 543.5996)" font-family="'Times-Roman'" font-size="14">appointment_date :date</text>
	<text transform="matrix(1 0 0 1 27 559.5996)" font-family="'Times-Roman'" font-size="14">appointment_comment :text</text>
	<text transform="matrix(1 0 0 1 27 575.5996)" font-family="'Times-Roman'" font-size="14">created_at :datetime</text>
	<text transform="matrix(1 0 0 1 27 591.5996)" font-family="'Times-Roman'" font-size="14">updated_at :datetime</text>
</g>
<g id="node2">
	<title>Demographic</title>
	<line fill="none" stroke="#000000" x1="62.5" y1="315" x2="171.5" y2="315"/>
	<path fill="none" stroke="#000000" d="M171.5,315c6,0,12-6,12-12"/>
	<line fill="none" stroke="#000000" x1="183.5" y1="303" x2="183.5" y2="199"/>
	<path fill="none" stroke="#000000" d="M183.5,199c0-6-6-12-12-12"/>
	<line fill="none" stroke="#000000" x1="171.5" y1="187" x2="62.5" y2="187"/>
	<path fill="none" stroke="#000000" d="M62.5,187c-6,0-12,6-12,12"/>
	<line fill="none" stroke="#000000" x1="50.5" y1="199" x2="50.5" y2="303"/>
	<path fill="none" stroke="#000000" d="M50.5,303c0,6,6,12,12,12"/>
	<text transform="matrix(1 0 0 1 78.9033 203.5996)" font-family="'Times-Roman'" font-size="14">Demographic</text>
	<line fill="none" stroke="#000000" x1="50.5" y1="211" x2="183.5" y2="211"/>
	<text transform="matrix(1 0 0 1 58.5 227.5996)" font-family="'Times-Roman'" font-size="14">sex :string</text>
	<text transform="matrix(1 0 0 1 58.5 243.5996)" font-family="'Times-Roman'" font-size="14">dob :date</text>
	<text transform="matrix(1 0 0 1 58.5 259.5996)" font-family="'Times-Roman'" font-size="14">education :integer</text>
	<text transform="matrix(1 0 0 1 58.5 275.5996)" font-family="'Times-Roman'" font-size="14">handedness :integer</text>
	<text transform="matrix(1 0 0 1 58.5 291.5996)" font-family="'Times-Roman'" font-size="14">created_at :datetime</text>
	<text transform="matrix(1 0 0 1 58.5 307.5996)" font-family="'Times-Roman'" font-size="14">updated_at :datetime</text>
</g>
<g id="node3">
	<title>Enrollment</title>
	<line fill="none" stroke="#000000" x1="212.5" y1="315" x2="351.5" y2="315"/>
	<path fill="none" stroke="#000000" d="M351.5,315c6,0,12-6,12-12"/>
	<line fill="none" stroke="#000000" x1="363.5" y1="303" x2="363.5" y2="199"/>
	<path fill="none" stroke="#000000" d="M363.5,199c0-6-6-12-12-12"/>
	<line fill="none" stroke="#000000" x1="351.5" y1="187" x2="212.5" y2="187"/>
	<path fill="none" stroke="#000000" d="M212.5,187c-6,0-12,6-12,12"/>
	<line fill="none" stroke="#000000" x1="200.5" y1="199" x2="200.5" y2="303"/>
	<path fill="none" stroke="#000000" d="M200.5,303c0,6,6,12,12,12"/>
	<text transform="matrix(1 0 0 1 250.5068 203.5996)" font-family="'Times-Roman'" font-size="14">Enrollment</text>
	<line fill="none" stroke="#000000" x1="200.5" y1="211" x2="363.5" y2="211"/>
	<text transform="matrix(1 0 0 1 208.5 227.5996)" font-family="'Times-Roman'" font-size="14">enumber :string</text>
	<text transform="matrix(1 0 0 1 208.5 243.5996)" font-family="'Times-Roman'" font-size="14">enroll_date :date</text>
	<text transform="matrix(1 0 0 1 208.5 259.5996)" font-family="'Times-Roman'" font-size="14">recruitment_source :string</text>
	<text transform="matrix(1 0 0 1 208.5 275.5996)" font-family="'Times-Roman'" font-size="14">withdrawl_reason :text</text>
	<text transform="matrix(1 0 0 1 208.5 291.5996)" font-family="'Times-Roman'" font-size="14">created_at :datetime</text>
	<text transform="matrix(1 0 0 1 208.5 307.5996)" font-family="'Times-Roman'" font-size="14">updated_at :datetime</text>
</g>
<title>EnrollmentVisitMembership</title>
<text transform="matrix(1 0 0 1 175.6104 338.8633)" font-family="'Times-Roman'" font-size="14">EnrollmentVisitMembership</text>
<g id="node8">
	<title>Visit</title>
	<line fill="none" stroke="#000000" x1="166" y1="465" x2="294" y2="465"/>
	<path fill="none" stroke="#000000" d="M294,465c6,0,12-6,12-12"/>
	<line fill="none" stroke="#000000" x1="306" y1="453" x2="306" y2="365"/>
	<path fill="none" stroke="#000000" d="M306,365c0-6-6-12-12-12"/>
	<line fill="none" stroke="#000000" x1="294" y1="353" x2="166" y2="353"/>
	<path fill="none" stroke="#000000" d="M166,353c-6,0-12,6-12,12"/>
	<line fill="none" stroke="#000000" x1="154" y1="365" x2="154" y2="453"/>
	<path fill="none" stroke="#000000" d="M154,453c0,6,6,12,12,12"/>
	<text transform="matrix(1 0 0 1 216.8027 369.5996)" font-family="'Times-Roman'" font-size="14">Visit</text>
	<line fill="none" stroke="#000000" x1="154" y1="377" x2="306" y2="377"/>
	<text transform="matrix(1 0 0 1 162 393.5996)" font-family="'Times-Roman'" font-size="14">cognitive_status :integer</text>
	<text transform="matrix(1 0 0 1 162 409.5996)" font-family="'Times-Roman'" font-size="14">visit_number :integer</text>
	<text transform="matrix(1 0 0 1 162 425.5996)" font-family="'Times-Roman'" font-size="14">scan_note :text</text>
	<text transform="matrix(1 0 0 1 162 441.5996)" font-family="'Times-Roman'" font-size="14">created_at :datetime</text>
	<text transform="matrix(1 0 0 1 162 457.5996)" font-family="'Times-Roman'" font-size="14">updated_at :datetime</text>
</g>
<g id="edge4">
	<title>Enrollment-&gt;Visit</title>
	<path fill="none" stroke="#000000" d="M257.648,324.991c-1.979,6.014-3.973,12.067-5.932,18.019"/>
	<polygon stroke="#000000" points="257.723,324.764 256.575,313.857 259.286,320.014 260.85,315.266 260.85,315.266 260.85,315.266 
		259.286,320.014 265.124,316.671 	"/>
	<polygon stroke="#000000" points="251.588,343.407 252.736,354.312 250.023,348.156 248.461,352.906 248.461,352.906 
		248.461,352.906 250.023,348.156 244.188,351.499 	"/>
</g>
<g id="node5">
	<title>Participant</title>
	<line fill="none" stroke="#000000" x1="215.5" y1="149" x2="342.5" y2="149"/>
	<path fill="none" stroke="#000000" d="M342.5,149c6,0,12-6,12-12"/>
	<line fill="none" stroke="#000000" x1="354.5" y1="137" x2="354.5" y2="17"/>
	<path fill="none" stroke="#000000" d="M354.5,17c0-6-6-12-12-12"/>
	<line fill="none" stroke="#000000" x1="342.5" y1="5" x2="215.5" y2="5"/>
	<path fill="none" stroke="#000000" d="M215.5,5c-6,0-12,6-12,12"/>
	<line fill="none" stroke="#000000" x1="203.5" y1="17" x2="203.5" y2="137"/>
	<path fill="none" stroke="#000000" d="M203.5,137c0,6,6,12,12,12"/>
	<text transform="matrix(1 0 0 1 248.6758 21.5996)" font-family="'Times-Roman'" font-size="14">Participant</text>
	<line fill="none" stroke="#000000" x1="203.5" y1="29" x2="354.5" y2="29"/>
	<text transform="matrix(1 0 0 1 211.5 45.5996)" font-family="'Times-Roman'" font-size="14">initials :string</text>
	<text transform="matrix(1 0 0 1 211.5 61.5996)" font-family="'Times-Roman'" font-size="14">wrapnum :string</text>
	<text transform="matrix(1 0 0 1 211.5 77.5996)" font-family="'Times-Roman'" font-size="14">reggieid :integer</text>
	<text transform="matrix(1 0 0 1 211.5 93.5996)" font-family="'Times-Roman'" font-size="14">notes :text</text>
	<text transform="matrix(1 0 0 1 211.5 109.5996)" font-family="'Times-Roman'" font-size="14">quality_redflag :boolean</text>
	<text transform="matrix(1 0 0 1 211.5 125.5996)" font-family="'Times-Roman'" font-size="14">created_at :datetime</text>
	<text transform="matrix(1 0 0 1 211.5 141.5996)" font-family="'Times-Roman'" font-size="14">updated_at :datetime</text>
</g>
<g id="edge8">
	<title>Participant-&gt;Demographic</title>
	<path fill="none" stroke="#000000" d="M206.445,154.928c-8.063,8.662-16.241,17.445-24.208,26.001"/>
	<ellipse fill="none" stroke="#000000" cx="209.213" cy="151.956" rx="4" ry="4"/>
	<ellipse stroke="#000000" cx="179.487" cy="183.885" rx="4" ry="4"/>
</g>
<g id="edge6">
	<title>Participant-&gt;Enrollment</title>
	<path fill="none" stroke="#000000" d="M280.415,159.082c0.112,6.547,0.228,13.131,0.338,19.603"/>
	<polygon stroke="#000000" points="280.414,159.027 275.743,149.106 280.328,154.028 280.242,149.028 280.242,149.028 
		280.242,149.028 280.328,154.028 284.741,148.951 	"/>
	<ellipse stroke="#000000" cx="280.824" cy="182.813" rx="4" ry="4"/>
</g>
<g id="node7">
	<title>Researcher</title>
	<line fill="none" stroke="#000000" x1="15.5" y1="465" x2="124.5" y2="465"/>
	<path fill="none" stroke="#000000" d="M124.5,465c6,0,12-6,12-12"/>
	<line fill="none" stroke="#000000" x1="136.5" y1="453" x2="136.5" y2="365"/>
	<path fill="none" stroke="#000000" d="M136.5,365c0-6-6-12-12-12"/>
	<line fill="none" stroke="#000000" x1="124.5" y1="353" x2="15.5" y2="353"/>
	<path fill="none" stroke="#000000" d="M15.5,353c-6,0-12,6-12,12"/>
	<line fill="none" stroke="#000000" x1="3.5" y1="365" x2="3.5" y2="453"/>
	<path fill="none" stroke="#000000" d="M3.5,453c0,6,6,12,12,12"/>
	<text transform="matrix(1 0 0 1 38.9102 369.5996)" font-family="'Times-Roman'" font-size="14">Researcher</text>
	<line fill="none" stroke="#000000" x1="3.5" y1="377" x2="136.5" y2="377"/>
	<text transform="matrix(1 0 0 1 11.5 393.5996)" font-family="'Times-Roman'" font-size="14">initials :string</text>
	<text transform="matrix(1 0 0 1 11.5 409.5996)" font-family="'Times-Roman'" font-size="14">first :string</text>
	<text transform="matrix(1 0 0 1 11.5 425.5996)" font-family="'Times-Roman'" font-size="14">last :string</text>
	<text transform="matrix(1 0 0 1 11.5 441.5996)" font-family="'Times-Roman'" font-size="14">created_at :datetime</text>
	<text transform="matrix(1 0 0 1 11.5 457.5996)" font-family="'Times-Roman'" font-size="14">updated_at :datetime</text>
</g>
<g id="edge12">
	<title>Researcher-&gt;Appointment</title>
	<path fill="none" stroke="#000000" d="M86.76,475.11c1.653,6.52,3.32,13.096,4.945,19.505"/>
	<polygon stroke="#000000" points="86.686,474.816 79.866,466.228 85.457,469.969 84.228,465.122 84.228,465.122 84.228,465.122 
		85.457,469.969 88.59,464.016 	"/>
	<ellipse stroke="#000000" cx="92.754" cy="498.751" rx="4" ry="4"/>
</g>
<g id="edge14">
	<title>Visit-&gt;Appointment</title>
	<path fill="none" stroke="#000000" d="M174.335,472.746c-6.847,7.841-13.799,15.801-20.515,23.493"/>
	<polygon stroke="#000000" points="174.414,472.655 177.602,462.162 177.703,468.888 180.992,465.122 180.992,465.122 
		180.992,465.122 177.703,468.888 184.381,468.082 	"/>
	<ellipse stroke="#000000" cx="150.871" cy="499.615" rx="4" ry="4"/>
</g>
<path fill="none" stroke="#000000" d="M339.434,336.264c0,6.353-5.147,11.5-11.5,11.5h-146.5c-6.352,0-11.5-5.147-11.5-11.5l0,0
	c0-6.352,5.148-11.5,11.5-11.5h146.5C334.285,324.764,339.434,329.912,339.434,336.264L339.434,336.264z"/>
</svg>
